<svg xmlns="http://www.w3.org/2000/svg" xmlns:xlink="http://www.w3.org/1999/xlink" width="36" height="36" viewBox="0 0 36 36"><defs><style>.a{fill:#31b057;}.b{fill:#fff;stroke:#707070;opacity:0;}.c{clip-path:url(#a);}.d{fill:rgba(0,0,0,0);}.e{fill:#2ecc71;}.f{stroke:none;}.g{fill:none;}</style><clipPath id="a"><path class="a" d="M28.818,32.339,28.218,30a.585.585,0,0,1,.437-.71.6.6,0,0,1,.727.425l.6,2.342a.583.583,0,0,1-.437.71.606.606,0,0,1-.145.018A.6.6,0,0,1,28.818,32.339ZM26.4,32.2V30.44a.6.6,0,0,1,1.2,0V32.2a.6.6,0,0,1-1.2,0Zm-1.945.568a.583.583,0,0,1-.437-.71l.6-2.342a.6.6,0,0,1,.727-.425.583.583,0,0,1,.437.71l-.6,2.342a.6.6,0,0,1-.581.443A.618.618,0,0,1,24.455,32.764Zm.745-5.25a1.759,1.759,0,0,1,1.2-1.65V11.443L19.553,8.949A2.964,2.964,0,0,1,18,9.366c-1.346,0-2.4-.772-2.4-1.756S16.654,5.854,18,5.854s2.4.772,2.4,1.756a1.337,1.337,0,0,1-.056.378l6.6,2.4L33.831,7.61,18,1.219,2.169,7.61,18,14l6.063-2.448a.607.607,0,0,1,.784.317.58.58,0,0,1-.325.764l-6.292,2.539a.6.6,0,0,1-.459,0L.37,8.151a.58.58,0,0,1,0-1.082L17.771.044a.617.617,0,0,1,.459,0L35.63,7.07a.58.58,0,0,1,0,1.082L27.6,11.393v1.058l7.2-2.892V9.366a.6.6,0,0,1,1.2,0v.586a.584.584,0,0,1-.372.542L27.6,13.717v7.261a5.952,5.952,0,0,0,1.2-1.769V15.221a.6.6,0,0,1,1.2,0v4.1a.556.556,0,0,1-.034.19A7.1,7.1,0,0,1,27.6,22.543v3.322a1.759,1.759,0,0,1,1.2,1.65,1.8,1.8,0,0,1-3.6,0ZM6.043,19.535A.58.58,0,0,1,6,19.318v-4.1a.6.6,0,0,1,1.2,0V19.2c.347.733,2.751,5.137,10.2,5.368V19.318a.6.6,0,0,1,1.2,0v5.25a14.282,14.282,0,0,0,5.734-1.275.6.6,0,0,1,.8.266.576.576,0,0,1-.272.784A15.741,15.741,0,0,1,18,25.756C8.7,25.756,6.147,19.789,6.043,19.535Zm11.728-2.019L.37,10.493A.585.585,0,0,1,0,9.951V9.366a.592.592,0,0,1,.6-.584.592.592,0,0,1,.6.584V9.56L18,16.342l6.37-2.572a.607.607,0,0,1,.784.317.578.578,0,0,1-.325.764l-6.6,2.665a.617.617,0,0,1-.459,0Z" transform="translate(0 0)"/></clipPath></defs><g transform="translate(-624 -514)"><g class="b" transform="translate(624 514)"><rect class="f" width="36" height="36"/><rect class="g" x="0.5" y="0.5" width="35" height="35"/></g><g class="c" transform="translate(624 515.537)"><g transform="translate(-1.64 -3.284)"><rect class="d" width="39.349" height="39.349"/><rect class="e" width="39.349" height="39.349"/></g></g></g></svg>