<svg xmlns="http://www.w3.org/2000/svg" width="60" height="60" viewBox="0 0 60 60"><defs><style>.a{fill:#fff;stroke:#c3decb;stroke-width:2px;}.b{fill:#345e3c;}.c{stroke:none;}.d{fill:none;}</style></defs><g transform="translate(-12511 4612)"><g class="a" transform="translate(12511 -4612)"><rect class="c" width="60" height="60" rx="30"/><rect class="d" x="1" y="1" width="58" height="58" rx="29"/></g><g transform="translate(12521 -4595)"><g transform="translate(4.347 18)"><path class="b" d="M59.646,320a4,4,0,1,0,4,4A4,4,0,0,0,59.646,320Zm0,6.667A2.667,2.667,0,1,1,62.313,324,2.669,2.669,0,0,1,59.646,326.667Z" transform="translate(-55.646 -320)"/></g><g transform="translate(27.009 18)"><path class="b" d="M349.719,320a4,4,0,1,0,4,4A4,4,0,0,0,349.719,320Zm0,6.667A2.667,2.667,0,1,1,352.386,324,2.669,2.669,0,0,1,349.719,326.667Z" transform="translate(-345.719 -320)"/></g><g transform="translate(0 0)"><path class="b" d="M39.334,105.6h-.667V90.267A.667.667,0,0,0,38,89.6H17.333a2.667,2.667,0,0,0-2.667,2.667v14H13.333v-10a.667.667,0,0,0-.667-.667h-8a.667.667,0,0,0-.555.3l-4,6a.666.666,0,0,0-.112.37V109.6a.667.667,0,0,0,.667.667H2.649a.675.675,0,0,0,.643-.435,5.343,5.343,0,0,1,5.033-3.565,7.067,7.067,0,0,1,3.9,1.167.713.713,0,0,0,.442.167h2v2a.667.667,0,0,0,.667.667h10a.675.675,0,0,0,.643-.435,5.336,5.336,0,0,1,10.051-.043.667.667,0,0,0,.639.478h2.667A.667.667,0,0,0,40,109.6v-3.333A.667.667,0,0,0,39.334,105.6Zm-30-4.333A.333.333,0,0,1,9,101.6H2.535a.333.333,0,0,1-.277-.518l2.667-4a.333.333,0,0,1,.277-.149H9a.333.333,0,0,1,.333.333Z" transform="translate(0 -89.6)"/></g></g></g></svg>