<?xml version="1.0" standalone="no"?>
<!DOCTYPE svg PUBLIC "-//W3C//DTD SVG 1.1//EN" "http://www.w3.org/Graphics/SVG/1.1/DTD/svg11.dtd" >
<svg xmlns="http://www.w3.org/2000/svg">
<metadata>Generated by IcoMoon</metadata>
<defs>
<font id="icomoon" horiz-adv-x="1024">
<font-face units-per-em="1024" ascent="960" descent="-64" />
<missing-glyph horiz-adv-x="1024" />
<glyph unicode="&#x20;" horiz-adv-x="512" d="" />
<glyph unicode="&#xe900;" glyph-name="icon-01" d="M112.026 752.538h799.949v-75.571h-799.949v75.571zM112.026 480.666h799.949v-75.571h-799.949v75.571zM112.026 208.794h799.949v-75.571h-799.949v75.571z" />
<glyph unicode="&#xe901;" glyph-name="icon-02" d="M832.102 863.437h-578.867c-45.243 0-81.92-36.677-81.92-81.92v0-78.643h-19.354c-23.017 0-41.677-18.659-41.677-41.677v0 0c0-23.017 18.659-41.677 41.677-41.677v0h19.558v-129.843h-19.558c-23.046 0-41.728-18.682-41.728-41.728s18.682-41.728 41.728-41.728v0h19.558v-129.843h-19.558c-23.046 0-41.728-18.682-41.728-41.728s18.682-41.728 41.728-41.728v0h19.558v-78.643c0-45.243 36.677-81.92 81.92-81.92v0h578.662c45.243 0 81.92 36.677 81.92 81.92v0 667.443c-0.116 45.155-36.749 81.715-81.92 81.715 0 0 0 0 0 0v0zM845.722 114.381c0-7.522-6.098-13.619-13.619-13.619v0h-578.867c-7.522 0-13.619 6.098-13.619 13.619v0 78.541h17.306c23.046 0 41.728 18.682 41.728 41.728s-18.682 41.728-41.728 41.728v0h-17.306v129.946h17.306c23.046 0 41.728 18.682 41.728 41.728s-18.682 41.728-41.728 41.728v0h-17.306v129.843h17.306c23.017 0 41.677 18.659 41.677 41.677v0 0c0 23.017-18.659 41.677-41.677 41.677v0h-17.306v78.746c0 7.522 6.098 13.619 13.619 13.619v0h578.867c7.522 0 13.619-6.098 13.619-13.619v0zM485.786 682.086c-0.020 0-0.043 0-0.066 0-5.495 0-10.469-2.231-14.065-5.837v0l-80.691-80.691-26.829 26.522c-3.474 3.003-8.036 4.832-13.024 4.832-11.028 0-19.968-8.94-19.968-19.968 0-4.989 1.829-9.55 4.854-13.050l-0.021 0.025 40.96-40.96c3.61-3.59 8.586-5.809 14.080-5.809s10.47 2.219 14.081 5.81l94.821 94.821c3.56 3.604 5.759 8.56 5.759 14.029 0 11.001-8.895 19.923-19.885 19.968h-0.004zM727.040 646.861h-174.080c-11.961 0-21.658-9.696-21.658-21.658s9.696-21.658 21.658-21.658v0h174.080c11.961 0 21.658 9.696 21.658 21.658s-9.696 21.658-21.658 21.658v0zM727.040 569.446h-174.080c-11.961 0-21.658-9.696-21.658-21.658s9.696-21.658 21.658-21.658v0h174.080c11.961 0 21.658 9.696 21.658 21.658s-9.696 21.658-21.658 21.658v0zM485.786 400.179c-0.020 0-0.043 0-0.066 0-5.495 0-10.469-2.231-14.065-5.837v0l-80.691-80.691-26.829 26.829c-3.474 3.003-8.036 4.832-13.024 4.832-11.028 0-19.968-8.94-19.968-19.968 0-4.989 1.829-9.55 4.854-13.050l-0.021 0.025 40.96-40.96c3.61-3.59 8.586-5.809 14.080-5.809s10.47 2.219 14.081 5.81l94.719 94.719c3.56 3.604 5.759 8.56 5.759 14.029 0 11.001-8.895 19.923-19.885 19.968h-0.004zM727.040 364.954h-174.080c-11.961 0-21.658-9.696-21.658-21.658s9.696-21.658 21.658-21.658v0h174.080c11.961 0 21.658 9.696 21.658 21.658s-9.696 21.658-21.658 21.658v0zM727.040 287.642h-174.080c-11.961 0-21.658-9.696-21.658-21.658s9.696-21.658 21.658-21.658v0h174.080c11.961 0 21.658 9.696 21.658 21.658s-9.696 21.658-21.658 21.658v0z" />
<glyph unicode="&#xe902;" glyph-name="icon-03" d="M931.84 565.76c-45.056 31.744-88.064 62.464-132.096 94.208 13.312 19.456 24.576 36.864 37.888 54.272 13.312 18.432 35.84 23.552 55.296 10.24 24.576-16.384 48.128-33.792 71.68-52.224 18.432-14.336 21.504-32.768 7.168-52.224-14.336-16.384-26.624-34.816-39.936-54.272zM562.176 327.168c-10.24-63.488-19.456-121.856-29.696-183.296 55.296 30.72 106.496 58.368 162.816 90.112-46.080 31.744-87.040 61.44-133.12 93.184zM560.128 230.912c0 5.12 1.024 10.24 2.048 15.36 3.072 16.384 7.168 31.744 11.264 52.224 31.744-22.528 60.416-43.008 93.184-66.56-24.576-13.312-43.008-25.6-63.488-34.816-15.36-6.144-44.032 16.384-43.008 33.792zM577.536 349.696l201.728 283.648 134.144-96.256-200.704-282.624zM531.456 673.28h-333.824c-7.168 0-12.288 5.12-12.288 12.288v9.216c0 7.168 5.12 12.288 12.288 12.288h333.824c7.168 0 12.288-5.12 12.288-12.288v-9.216c0-7.168-5.12-12.288-12.288-12.288zM531.456 570.88h-333.824c-7.168 0-12.288 5.12-12.288 12.288v9.216c0 7.168 5.12 12.288 12.288 12.288h333.824c7.168 0 12.288-5.12 12.288-12.288v-9.216c0-7.168-5.12-12.288-12.288-12.288zM531.456 469.504h-333.824c-7.168 0-12.288 5.12-12.288 12.288v9.216c0 7.168 5.12 12.288 12.288 12.288h333.824c7.168 0 12.288-5.12 12.288-12.288v-9.216c0-7.168-5.12-12.288-12.288-12.288zM531.456 366.080h-333.824c-7.168 0-12.288 5.12-12.288 12.288v9.216c0 7.168 5.12 12.288 12.288 12.288h333.824c7.168 0 12.288-5.12 12.288-12.288v-9.216c0-7.168-5.12-12.288-12.288-12.288zM628.736 469.504l56.32 76.8v19.456c0 3.072 1.024 6.144 1.024 9.216 0 71.68 0 143.36 0 215.040 0 51.2-15.36 66.56-67.584 66.56-111.616-1.024-223.232-3.072-334.848-4.096-59.392 0-117.76 3.072-177.152 4.096-40.96 1.024-61.44-19.456-61.44-61.44 0-175.104 0-349.184 0-524.288 0-33.792 11.264-63.488 34.816-88.064 29.696-31.744 61.44-62.464 92.16-92.16 26.624-26.624 56.32-47.104 95.232-48.128 121.856-1.024 244.736-1.024 366.592 0 25.6 0 47.104 13.312 50.176 37.888 4.096 35.84 1.024 71.68 1.024 111.616-19.456-11.264-41.984-16.384-50.176-29.696-9.216-15.36-6.144-37.888-8.192-59.392-117.76 0-235.52 0-355.328 0 0 43.008 0 83.968 0 125.952 0 38.912-14.336 53.248-53.248 54.272-36.864 0-74.752 0-114.688 0 0 13.312 0 22.528 0 31.744 0 124.928 0 249.856 0 374.784 0 25.6 0 50.176-3.072 75.776-2.048 28.672 1.024 33.792 29.696 33.792 67.584 0 136.192 0 203.776 0 89.088 0 178.176 0 267.264 1.024 21.504 0 28.672-5.12 28.672-27.648-1.024-53.248-1.024-106.496 0-160.768v0-142.336zM210.944 249.344c26.624-3.072 23.552-30.72 23.552-30.72v-108.544c-35.84 19.456-131.072 139.264-131.072 139.264h107.52z" />
<glyph unicode="&#xe90c;" glyph-name="icon-04" d="M883.917 408.371c0-89.498 0.614-179.098 0-268.595-0.717-76.186-28.262-105.267-102.4-105.677q-268.595-1.331-537.088 0c-75.366 0-103.322 28.672-103.731 104.346q-1.126 268.595 0 537.088c0 71.68 28.979 99.738 99.533 101.888 29.798 0.922 59.802 1.536 89.498 0 38.093-2.253 65.741 4.71 92.16 39.834 20.53 27.717 53.122 45.487 89.866 45.487 36.43 0 68.779-17.469 89.129-44.486l0.205-0.284c26.726-34.202 53.35-43.827 92.16-40.96 25.088 2.15 50.483 0.614 75.674 0 88.678-0.717 114.278-26.010 114.688-114.483 0.717-84.275 0.41-169.267 0.307-254.157zM307.814 534.835h407.45v73.626h-407.45zM715.981 443.494h-406.426v-74.65h406.426zM308.634 203.878h286.72l-3.686 74.547h-283.034zM567.706 733.798c-23.962 19.558-38.298 40.448-52.326 40.141s-29.082-20.48-43.622-32.461c13.312-15.155 24.371-37.581 40.96-42.803 10.854-3.379 30.003 18.022 54.989 35.123z" />
<glyph unicode="&#xe90d;" glyph-name="icon-05" d="M968.602 616.038l-456.602-463.053-456.602 463.053 127.181 106.496 328.192-340.070 330.752 340.070z" />
<glyph unicode="&#xe90e;" glyph-name="icon-06" d="M55.398 259.482l456.602 463.053 456.602-463.053-127.078-106.496-328.294 340.070-330.752-340.070z" />
<glyph unicode="&#xe90f;" glyph-name="icon-07" d="M333.722 904.602l463.053-456.602-463.053-456.602-106.496 127.078 340.070 328.294-340.070 330.752z" />
<glyph unicode="&#xe910;" glyph-name="icon-08" d="M690.278-8.602l-463.053 456.602 463.053 456.602 106.496-127.181-340.070-328.192 340.070-330.752z" />
<glyph unicode="&#xe911;" glyph-name="icon-09" d="M512 616.038h437.35c0.029 0 0.062 0.001 0.096 0.001 4.242 0 7.68-3.438 7.68-7.68 0-2.119-0.858-4.038-2.247-5.428v0l-437.35-447.59c-1.399-1.45-3.359-2.35-5.53-2.35s-4.131 0.9-5.527 2.348l-0.002 0.002-437.35 447.59c-1.388 1.39-2.247 3.308-2.247 5.428 0 4.242 3.438 7.68 7.68 7.68 0.034 0 0.068 0 0.101-0.001h-0.005z" />
<glyph unicode="&#xe912;" glyph-name="icon-10" d="M965.53 512.102c0 202.957-203.469 368.026-453.53 368.026s-453.53-165.069-453.53-368.026c0-181.862 161.382-334.336 378.88-363.11 14.746-3.174 34.816-10.24 39.936-22.323 1.938-7.1 3.051-15.251 3.051-23.663 0-6.117-0.589-12.096-1.713-17.884l0.095 0.588s-5.325-32.051-6.451-38.81c-1.229-11.571-8.704-44.954 39.731-24.576s261.222 153.6 356.352 263.373v0c65.638 71.987 97.178 145.203 97.178 226.406zM334.438 391.373h-90.112c-13.097 0.058-23.699 10.66-23.757 23.751v180.23c0 13.149 10.659 23.808 23.808 23.808s23.808-10.659 23.808-23.808v0-156.467h66.355c13.149 0 23.808-10.659 23.808-23.808s-10.659-23.808-23.808-23.808v0zM427.622 415.13c0-13.121-10.636-23.757-23.757-23.757s-23.757 10.636-23.757 23.757v180.224c0 13.121 10.636 23.757 23.757 23.757s23.757-10.636 23.757-23.757v0zM644.506 415.13c0-0.010 0-0.022 0-0.034 0-13.121-10.636-23.757-23.757-23.757-7.77 0-14.668 3.73-19.003 9.496l-0.044 0.061-92.16 125.747v-111.514c0-13.121-10.636-23.757-23.757-23.757s-23.757 10.636-23.757 23.757v180.224c0 0.004 0 0.008 0 0.012 0 10.409 6.694 19.254 16.012 22.466l0.167 0.050c2.261 0.774 4.866 1.223 7.575 1.229h0.003c7.756-0.026 14.642-3.733 19.003-9.464l0.043-0.059 92.16-125.747v111.514c0 13.149 10.659 23.808 23.808 23.808s23.808-10.659 23.808-23.808v0zM790.426 528.998c13.121 0 23.757-10.636 23.757-23.757s-10.636-23.757-23.757-23.757h-66.355v-42.598h66.355c13.149 0 23.808-10.659 23.808-23.808s-10.659-23.808-23.808-23.808v0h-90.112c-13.097 0.058-23.699 10.66-23.757 23.751v180.332c0 13.121 10.636 23.757 23.757 23.757v0h90.112c13.149 0 23.808-10.659 23.808-23.808s-10.659-23.808-23.808-23.808v0h-66.355v-42.496z" />
<glyph unicode="&#xe923;" glyph-name="profile" d="M864 960h-768c-52.8 0-96-43.2-96-96v-832c0-52.8 43.2-96 96-96h768c52.8 0 96 43.2 96 96v832c0 52.8-43.2 96-96 96zM832 64h-704v768h704v-768zM256 384h448v-64h-448zM256 256h448v-64h-448zM320 672c0 53.019 42.981 96 96 96s96-42.981 96-96c0-53.019-42.981-96-96-96s-96 42.981-96 96zM480 576h-128c-52.8 0-96-28.8-96-64v-64h320v64c0 35.2-43.2 64-96 64z" />
<glyph unicode="&#xe994;" glyph-name="cog" d="M933.79 349.75c-53.726 93.054-21.416 212.304 72.152 266.488l-100.626 174.292c-28.75-16.854-62.176-26.518-97.846-26.518-107.536 0-194.708 87.746-194.708 195.99h-201.258c0.266-33.41-8.074-67.282-25.958-98.252-53.724-93.056-173.156-124.702-266.862-70.758l-100.624-174.292c28.97-16.472 54.050-40.588 71.886-71.478 53.638-92.908 21.512-211.92-71.708-266.224l100.626-174.292c28.65 16.696 61.916 26.254 97.4 26.254 107.196 0 194.144-87.192 194.7-194.958h201.254c-0.086 33.074 8.272 66.57 25.966 97.218 53.636 92.906 172.776 124.594 266.414 71.012l100.626 174.29c-28.78 16.466-53.692 40.498-71.434 71.228zM512 240.668c-114.508 0-207.336 92.824-207.336 207.334 0 114.508 92.826 207.334 207.336 207.334 114.508 0 207.332-92.826 207.332-207.334-0.002-114.51-92.824-207.334-207.332-207.334z" />
<glyph unicode="&#xe9d7;" glyph-name="star-empty" d="M1024 562.95l-353.78 51.408-158.22 320.582-158.216-320.582-353.784-51.408 256-249.538-60.432-352.352 316.432 166.358 316.432-166.358-60.434 352.352 256.002 249.538zM512 206.502l-223.462-117.48 42.676 248.83-180.786 176.222 249.84 36.304 111.732 226.396 111.736-226.396 249.836-36.304-180.788-176.222 42.678-248.83-223.462 117.48z" />
<glyph unicode="&#xe9d9;" glyph-name="star-full" d="M1024 562.95l-353.78 51.408-158.22 320.582-158.216-320.582-353.784-51.408 256-249.538-60.432-352.352 316.432 166.358 316.432-166.358-60.434 352.352 256.002 249.538z" />
<glyph unicode="&#xea0a;" glyph-name="plus" d="M992 576h-352v352c0 17.672-14.328 32-32 32h-192c-17.672 0-32-14.328-32-32v-352h-352c-17.672 0-32-14.328-32-32v-192c0-17.672 14.328-32 32-32h352v-352c0-17.672 14.328-32 32-32h192c17.672 0 32 14.328 32 32v352h352c17.672 0 32 14.328 32 32v192c0 17.672-14.328 32-32 32z" />
<glyph unicode="&#xea0b;" glyph-name="minus" d="M0 544v-192c0-17.672 14.328-32 32-32h960c17.672 0 32 14.328 32 32v192c0 17.672-14.328 32-32 32h-960c-17.672 0-32-14.328-32-32z" />
<glyph unicode="&#xea0f;" glyph-name="cross" d="M1014.662 137.34c-0.004 0.004-0.008 0.008-0.012 0.010l-310.644 310.65 310.644 310.65c0.004 0.004 0.008 0.006 0.012 0.010 3.344 3.346 5.762 7.254 7.312 11.416 4.246 11.376 1.824 24.682-7.324 33.83l-146.746 146.746c-9.148 9.146-22.45 11.566-33.828 7.32-4.16-1.55-8.070-3.968-11.418-7.31 0-0.004-0.004-0.006-0.008-0.010l-310.648-310.652-310.648 310.65c-0.004 0.004-0.006 0.006-0.010 0.010-3.346 3.342-7.254 5.76-11.414 7.31-11.38 4.248-24.682 1.826-33.83-7.32l-146.748-146.748c-9.148-9.148-11.568-22.452-7.322-33.828 1.552-4.16 3.97-8.072 7.312-11.416 0.004-0.002 0.006-0.006 0.010-0.010l310.65-310.648-310.65-310.652c-0.002-0.004-0.006-0.006-0.008-0.010-3.342-3.346-5.76-7.254-7.314-11.414-4.248-11.376-1.826-24.682 7.322-33.83l146.748-146.746c9.15-9.148 22.452-11.568 33.83-7.322 4.16 1.552 8.070 3.97 11.416 7.312 0.002 0.004 0.006 0.006 0.010 0.010l310.648 310.65 310.648-310.65c0.004-0.002 0.008-0.006 0.012-0.008 3.348-3.344 7.254-5.762 11.414-7.314 11.378-4.246 24.684-1.826 33.828 7.322l146.746 146.748c9.148 9.148 11.57 22.454 7.324 33.83-1.552 4.16-3.97 8.068-7.314 11.414z" />
<glyph unicode="&#xea10;" glyph-name="checkmark" d="M864 832l-480-480-224 224-160-160 384-384 640 640z" />
<glyph unicode="&#xea8b;" glyph-name="google-plus" d="M325.8 502.6v-111.8h184.8c-7.4-48-55.8-140.6-184.8-140.6-111.2 0-202 92.2-202 205.8s90.8 205.8 202 205.8c63.4 0 105.6-27 129.8-50.2l88.4 85.2c-56.8 53-130.4 85.2-218.2 85.2-180.2-0.2-325.8-145.8-325.8-326s145.6-325.8 325.8-325.8c188 0 312.8 132.2 312.8 318.4 0 21.4-2.4 37.8-5.2 54h-307.6zM1024 512h-96v96h-96v-96h-96v-96h96v-96h96v96h96z" />
<glyph unicode="&#xea90;" glyph-name="facebook" d="M608 768h160v192h-160c-123.514 0-224-100.486-224-224v-96h-128v-192h128v-512h192v512h160l32 192h-192v96c0 17.346 14.654 32 32 32z" />
<glyph unicode="&#xeaca;" glyph-name="linkedin2" d="M384 576h177.106v-90.782h2.532c24.64 44.194 84.958 90.782 174.842 90.782 186.946 0 221.52-116.376 221.52-267.734v-308.266h-184.61v273.278c0 65.184-1.334 149.026-96.028 149.026-96.148 0-110.82-70.986-110.82-144.292v-278.012h-184.542v576zM64 576h192v-576h-192v576zM256 736c0-53.019-42.981-96-96-96s-96 42.981-96 96c0 53.019 42.981 96 96 96s96-42.981 96-96z" />
</font>
</defs>
</svg>
