<svg xmlns="http://www.w3.org/2000/svg" width="36" height="36" viewBox="0 0 36 36"><defs><style>.a,.b{fill:#2ecc71;}.a{stroke:#707070;opacity:0;}.c{stroke:none;}.d{fill:none;}</style></defs><g transform="translate(-416 -2501)"><g class="a" transform="translate(416 2501)"><rect class="c" width="36" height="36"/><rect class="d" x="0.5" y="0.5" width="35" height="35"/></g><g transform="translate(337 2501)"><g transform="translate(84)"><path class="b" d="M207.25,7.875H196V2.25h2.869a2.813,2.813,0,0,1,5.511,0h2.869ZM197.125,6.75h9V3.375h-2.812V2.813a1.688,1.688,0,0,0-3.375,0v.563h-2.812Z" transform="translate(-188.125)"/><rect class="b" width="1.125" height="1.125" transform="translate(12.938 2.25)"/><path class="b" d="M138.5,93.25H116V64h4.5v1.125h-3.375v27h20.25v-27H134V64h4.5Z" transform="translate(-113.75 -59.5)"/><rect class="b" width="6.75" height="1.125" transform="translate(10.125 4.5)"/><path class="b" d="M111,65.75H84V32h6.75v1.125H85.125v31.5h24.75v-31.5H104.25V32H111Z" transform="translate(-84 -29.75)"/><path class="b" d="M207.25,254.75h-1.125v-3.375a2.25,2.25,0,0,0-2.028-2.239l-2.472,2.472-2.472-2.472a2.25,2.25,0,0,0-2.028,2.239v3.375H196v-3.375A3.376,3.376,0,0,1,199.375,248h.233l2.017,2.017L203.642,248h.233a3.376,3.376,0,0,1,3.375,3.375Z" transform="translate(-188.125 -230.563)"/><rect class="b" width="1.125" height="1.125" transform="translate(12.938 21.938)"/><path class="b" d="M231.375,150.75a3.375,3.375,0,1,1,3.375-3.375A3.378,3.378,0,0,1,231.375,150.75Zm0-5.625a2.25,2.25,0,1,0,2.25,2.25A2.252,2.252,0,0,0,231.375,145.125Z" transform="translate(-217.875 -133.875)"/><rect class="b" width="16.875" height="1.125" transform="translate(5.063 25.313)"/><rect class="b" width="16.875" height="1.125" transform="translate(5.063 27.563)"/><rect class="b" width="8.438" height="1.125" transform="translate(5.063 29.813)"/></g></g></g></svg>