<svg xmlns="http://www.w3.org/2000/svg" width="28" height="28" viewBox="0 0 28 28"><defs><style>.a,.b{fill:#6ccb94;}.a{opacity:0;}.c,.d{stroke:none;}.d{fill:#707070;}</style></defs><g transform="translate(-528 -2909)"><g class="a" transform="translate(528 2909)"><path class="c" d="M 27.5 27.5 L 0.5 27.5 L 0.5 0.5 L 27.5 0.5 L 27.5 27.5 Z"/><path class="d" d="M 1 1 L 1 27 L 27 27 L 27 1 L 1 1 M 0 0 L 28 0 L 28 28 L 0 28 L 0 0 Z"/></g><path class="b" d="M2.4,22.4A2.4,2.4,0,0,1,0,20.023V2.416A2.414,2.414,0,0,1,2.416,0H20.023A2.4,2.4,0,0,1,22.4,2.4V20.023A2.4,2.4,0,0,1,20.023,22.4H2.4Zm8.772-4.945h0a10.82,10.82,0,0,0,6.257,1.981h.021a.99.99,0,1,0,0-1.981,8.863,8.863,0,0,1-4.694-1.367,10.947,10.947,0,0,0,3.03-6.615h1.644a.99.99,0,0,0,0-1.981H12.158V3.868a.99.99,0,0,0-1.981,0V7.493H4.889a.99.99,0,0,0,0,1.981H6.533a10.947,10.947,0,0,0,3.05,6.615,8.864,8.864,0,0,1-4.694,1.367.99.99,0,0,0,0,1.981h.021a10.818,10.818,0,0,0,6.257-1.981Zm0-2.555h0A8.931,8.931,0,0,1,8.581,9.533h5.182A8.931,8.931,0,0,1,11.168,14.9Z" transform="translate(530.8 2911.8)"/></g></svg>