<svg xmlns="http://www.w3.org/2000/svg" width="36" height="36" viewBox="0 0 36 36"><defs><style>.a,.b{fill:#2ecc71;}.a{opacity:0;}.c,.d{stroke:none;}.d{fill:#707070;}</style></defs><g transform="translate(-416 -3743)"><g class="a" transform="translate(416 3743)"><path class="c" d="M 35.29999923706055 35.29999923706055 L 0.699999988079071 35.29999923706055 L 0.699999988079071 0.699999988079071 L 35.29999923706055 0.699999988079071 L 35.29999923706055 35.29999923706055 Z"/><path class="d" d="M 1.400001525878906 1.400001525878906 L 1.400001525878906 34.59999847412109 L 34.59999847412109 34.59999847412109 L 34.59999847412109 1.400001525878906 L 1.400001525878906 1.400001525878906 M 0 0 L 36 0 L 36 36 L 0 36 L 0 0 Z"/></g><g transform="translate(415.998 3741.64)"><g transform="translate(0.002 1.36)"><g transform="translate(0 0)"><path class="b" d="M36,16.392c0-.009,0-.018,0-.027s0-.017,0-.026,0-.012,0-.018,0-.017,0-.026l0-.023c0-.007,0-.014,0-.021l-.005-.023-.006-.022-.007-.024-.007-.019-.008-.022-.01-.025-.007-.015-.012-.023-.013-.025,0-.008,0-.005-.015-.023L35.874,16l-.009-.014-.017-.021-.015-.019-.013-.015L35.8,15.91l-.016-.016-.017-.017-.016-.013-.019-.015-.021-.016-.014-.009-.022-.015-.023-.015-.005,0-6.081-3.527V2.066a.706.706,0,0,0-.706-.706H7.14a.706.706,0,0,0-.706.706v10.2L.353,15.789l-.005,0-.023.014L.3,15.822l-.014.009-.02.016-.019.016-.015.013-.017.016L.2,15.91l-.017.017-.013.015-.016.019-.016.021L.13,16l-.015.023L.1,16.041l0,.005,0,.008-.013.025L.068,16.1l-.007.015-.01.026-.008.022-.007.019c0,.008,0,.016-.007.024l-.006.021-.006.023c0,.007,0,.014,0,.021l0,.023c0,.009,0,.017,0,.026s0,.012,0,.018,0,.017,0,.026,0,.018,0,.027S0,16.4,0,16.4V36.463a.706.706,0,0,0,.706.706H35.3A.706.706,0,0,0,36,36.463V16.4S36,16.395,36,16.392Zm-6.432-2.5,4.32,2.505-4.32,2.506ZM7.845,2.772H28.157V19.725L18,25.615,7.845,19.724ZM6.434,13.895v5.011h0L2.115,16.4ZM34.59,35.757H1.414V17.626l16.234,9.417a.706.706,0,0,0,.708,0L34.59,17.626Z" transform="translate(-0.002 -1.36)"/></g></g><g transform="translate(10.353 7.407)"><path class="b" d="M161.807,87.36H147.921a.706.706,0,1,0,0,1.412h13.886a.706.706,0,1,0,0-1.412Z" transform="translate(-147.215 -87.36)"/></g><g transform="translate(10.353 11.096)"><path class="b" d="M161.807,139.83H147.921a.706.706,0,1,0,0,1.412h13.886a.706.706,0,1,0,0-1.412Z" transform="translate(-147.215 -139.83)"/></g><g transform="translate(10.353 14.786)"><path class="b" d="M161.807,192.3H147.921a.706.706,0,1,0,0,1.412h13.886a.706.706,0,1,0,0-1.412Z" transform="translate(-147.215 -192.303)"/></g><g transform="translate(10.353 18.475)"><path class="b" d="M154.864,244.774h-6.943a.706.706,0,1,0,0,1.412h6.943a.706.706,0,1,0,0-1.412Z" transform="translate(-147.215 -244.774)"/></g><g transform="translate(22.623 33.335)"><path class="b" d="M328.276,456.115H322.41a.706.706,0,0,0,0,1.412h5.866A.706.706,0,0,0,328.276,456.115Z" transform="translate(-321.728 -456.115)"/></g><g transform="translate(31.13 33.181)"><g transform="translate(0 0)"><path class="b" d="M443.388,453.928a.706.706,0,0,0,0,1.412A.706.706,0,0,0,443.388,453.928Z" transform="translate(-442.706 -453.928)"/></g></g></g></g></svg>