<svg xmlns="http://www.w3.org/2000/svg" width="28" height="28" viewBox="0 0 28 28"><defs><style>.a,.b{fill:#6ccb94;}.a{stroke:#707070;opacity:0;}.c{stroke:none;}.d{fill:none;}</style></defs><g transform="translate(-528 -2761)"><g transform="translate(528 2761)"><g class="a"><rect class="c" width="28" height="28"/><rect class="d" x="0.5" y="0.5" width="27" height="27"/></g></g><g transform="translate(530.8 2763.8)"><g transform="translate(9.11 7.407)"><g transform="translate(0 0)"><path class="b" d="M329.25,309.12l-2.08,5.585h4.159Z" transform="translate(-327.17 -309.12)"/></g></g><g transform="translate(0 0)"><path class="b" d="M249.059,229.333H231.452a2.416,2.416,0,0,0-2.416,2.416v17.607a2.4,2.4,0,0,0,2.416,2.377h17.607a2.4,2.4,0,0,0,2.377-2.377V231.73A2.4,2.4,0,0,0,249.059,229.333ZM245.5,247.912a.938.938,0,0,1-.1.039h.02a.951.951,0,0,1-1.227-.551v0l-1.168-3.169h-5.545L236.3,247.4a.931.931,0,0,1-.891.614.831.831,0,0,1-.317,0,.931.931,0,0,1-.594-1.327l4.852-13.052a.97.97,0,0,1,.891-.654.951.951,0,0,1,.891.654l4.832,13.052A.931.931,0,0,1,245.5,247.912Z" transform="translate(-229.036 -229.333)"/></g></g></g></svg>