<svg xmlns="http://www.w3.org/2000/svg" xmlns:xlink="http://www.w3.org/1999/xlink" width="36" height="36" viewBox="0 0 36 36"><defs><style>.a{fill:#2ecc71;}.b{fill:#fff;stroke:#707070;opacity:0;}.c{clip-path:url(#a);}.d{fill:rgba(0,0,0,0);}.e{stroke:none;}.f{fill:none;}</style><clipPath id="a"><path class="a" d="M33,28.766H3a2.943,2.943,0,0,1-3-2.876V7.192A2.944,2.944,0,0,1,3,4.314h7.5V2.876A2.943,2.943,0,0,1,13.5,0h9a2.943,2.943,0,0,1,3,2.876V4.314H33a2.944,2.944,0,0,1,3,2.878v18.7A2.943,2.943,0,0,1,33,28.766ZM1.5,15.422V25.889A1.472,1.472,0,0,0,3,27.327H33a1.472,1.472,0,0,0,1.5-1.438V15.422a3.025,3.025,0,0,1-1.5.4H21V17.98a.736.736,0,0,1-.75.719h-4.5A.736.736,0,0,1,15,17.98V15.821H3A3.039,3.039,0,0,1,1.5,15.422Zm15-1.039v2.876h3V14.383Zm-.75-1.438h4.5a.736.736,0,0,1,.75.719v.719H33a1.472,1.472,0,0,0,1.5-1.438V7.192A1.472,1.472,0,0,0,33,5.754H3A1.472,1.472,0,0,0,1.5,7.192v5.752A1.472,1.472,0,0,0,3,14.383H15v-.719A.736.736,0,0,1,15.749,12.945ZM13.5,1.438A1.472,1.472,0,0,0,12,2.876V4.314H24V2.876a1.472,1.472,0,0,0-1.5-1.438Z" transform="translate(2 4.025)"/></clipPath></defs><g transform="translate(-418 -682)"><g class="b" transform="translate(418 682)"><rect class="e" width="36" height="36"/><rect class="f" x="0.5" y="0.5" width="35" height="35"/></g><g class="c" transform="translate(416 681.975)"><g transform="translate(-1.607 -3.234)"><rect class="d" width="43.284" height="43.284"/><rect class="a" width="43.284" height="43.284"/></g></g></g></svg>