<svg xmlns="http://www.w3.org/2000/svg" width="60" height="60" viewBox="0 0 60 60"><defs><style>.a{fill:#fff;stroke:#c3decb;stroke-width:2px;}.b{fill:#345e3c;}.c{stroke:none;}.d{fill:none;}</style></defs><g transform="translate(-12488 4627)"><g class="a" transform="translate(12488 -4627)"><rect class="c" width="60" height="60" rx="30"/><rect class="d" x="1" y="1" width="58" height="58" rx="29"/></g><g transform="translate(12498 -4614)"><path class="b" d="M36.374,66.78a4.651,4.651,0,0,0-3.537.616l-1-1.162c1.677-1.273,3.8-1.63,7.361-.915a.667.667,0,0,0,.8-.654c0-1.812-2.081-4-4.667-4a7.385,7.385,0,0,0-1.339.132c-.057-4.543-.857-6.6-3.523-9.27l-.211-.211a8.382,8.382,0,0,1-1.855-2.3,13.007,13.007,0,0,0,2.914.319A.672.672,0,0,0,32,48.665V43.332a.663.663,0,0,0-.653-.667c-3.487,0-6.184,1.2-6.614,2.865L20.4,47.386a.667.667,0,0,0,.263,1.279.653.653,0,0,0,.263-.055l2.451-1.051c0,.012,0,.025.008.036,2.923,6.749,3.525,11.163,1.842,13.5-1.326,1.838-4.182,2.6-8.933,2.352a.665.665,0,0,1-.61-.817c.239-1.017.652-2.8.859-3.835A.666.666,0,0,0,15.891,58H2.083a.651.651,0,0,0-.548.284A7.808,7.808,0,0,0,.712,60L.218,62A16.3,16.3,0,0,0,0,64.665c0,2.313,1.565,3.274,3.03,3.753a4.649,4.649,0,0,0-.393,5.267,4.6,4.6,0,0,0,3.034,2.209,4.622,4.622,0,0,0,5.507-5.7,40.082,40.082,0,0,0,5.381.382A35.678,35.678,0,0,0,27.4,68.888,10.867,10.867,0,0,0,27.333,70a.667.667,0,0,0,1.237.345,19.608,19.608,0,0,1,2.285-3.211l.97,1.132a4.661,4.661,0,1,0,4.549-1.484ZM9.968,71.8A3.337,3.337,0,1,1,3.49,70.3a3.227,3.227,0,0,1,.955-1.45l.034-.031c.889.241,1.767.463,2.627.654l-.994,1.491a.667.667,0,0,0,1.109.74l1.293-1.94c.407.079.809.149,1.209.217l.085.241A3.363,3.363,0,0,1,9.968,71.8Zm24.477,2.751A3.319,3.319,0,0,1,32.713,69.3l2.115,2.468a.666.666,0,1,0,1.011-.867L33.724,68.43a3.23,3.23,0,0,1,2.872-.177,3.332,3.332,0,0,1-2.151,6.3Z" transform="translate(0 -42.665)"/><g transform="translate(2 11.333)"><path class="b" d="M38.521,187.731H27.346c-1.079,0-1.746.415-1.746,1.333v.667a.667.667,0,0,0,.667.667H39.6a.667.667,0,0,0,.667-.667v-.667C40.267,188.146,39.6,187.731,38.521,187.731Z" transform="translate(-25.6 -187.731)"/></g></g></g></svg>