<svg xmlns="http://www.w3.org/2000/svg" xmlns:xlink="http://www.w3.org/1999/xlink" width="83" height="83" viewBox="0 0 83 83"><defs><style>.a{fill:#fff;stroke:#707070;}.b{fill:rgba(46,204,113,0.2);}.c{clip-path:url(#a);}.d{fill:#8cb49d;}</style><clipPath id="a"><circle class="a" cx="41.5" cy="41.5" r="41.5"/></clipPath></defs><g transform="translate(-117 -5395)"><circle class="b" cx="41.5" cy="41.5" r="41.5" transform="translate(117 5395)"/><g class="c" transform="translate(117 5395)"><g transform="translate(15.183 8.604)"><g transform="translate(0 10.58)"><rect class="d" width="10.796" height="12.091" transform="translate(20.835 45.558)"/><path class="d" d="M86.862,154.276a18.113,18.113,0,0,0,10.8,2.222v-3.647h-10.8Z" transform="translate(-66.027 -107.295)"/><ellipse class="d" cx="5.268" cy="6.01" rx="5.268" ry="6.01" transform="translate(0 20.799)"/><ellipse class="d" cx="5.268" cy="6.01" rx="5.268" ry="6.01" transform="translate(41.93 20.799)"/><path class="d" d="M86.384,44.137c0-8.852-6.477-15.33-20.943-15.33S44.5,35.284,44.5,44.137,42.986,76.308,65.441,76.308,86.384,52.989,86.384,44.137Z" transform="translate(-39.208 -28.807)"/><g transform="translate(12.184 16.247)"><g transform="translate(1.581 6.639)"><ellipse class="d" cx="2.267" cy="2.483" rx="2.267" ry="2.483"/><circle class="d" cx="0.678" cy="0.678" r="0.678" transform="translate(0.601 0.708)"/></g><path class="d" d="M63.527,76.015c1.072.536,2.793-1.822,6.734.23.718.374,1.147-3.2-3.077-3.2C63.527,73.046,62.88,75.691,63.527,76.015Z" transform="translate(-63.306 -73.046)"/><g transform="translate(22.263 6.639)"><ellipse class="d" cx="2.267" cy="2.483" rx="2.267" ry="2.483"/><circle class="d" cx="0.678" cy="0.678" r="0.678" transform="translate(0.6 0.708)"/></g><path class="d" d="M126.815,76.015c-1.072.536-2.794-1.822-6.734.23-.718.374-1.147-3.2,3.077-3.2C126.815,73.046,127.463,75.691,126.815,76.015Z" transform="translate(-98.938 -73.046)"/></g><path class="d" d="M95.376,119.8c-2.24,0-3.59-1.674-3.59-.864s.648,2.348,3.59,2.348,3.589-1.538,3.589-2.348S97.615,119.8,95.376,119.8Z" transform="translate(-69.143 -85.692)"/><path class="d" d="M99.421,141.29c-.775,0-1.242-.579-1.242-.3s.224.812,1.242.812,1.241-.532,1.241-.812S100.2,141.29,99.421,141.29Z" transform="translate(-73.188 -99.741)"/><path class="d" d="M91.757,134.356c-3.551,0-5.69-1.446-5.69-1.079s1.027,1.808,5.69,1.808,5.69-1.442,5.69-1.808S95.308,134.356,91.757,134.356Z" transform="translate(-65.524 -94.871)"/></g><path class="d" d="M56.365,166.08v13.6H30.132C30.132,174.177,43.95,166.08,56.365,166.08Z" transform="translate(-30.132 -105.085)"/><path class="d" d="M101.56,166.08v13.6h26.233C127.792,174.177,113.975,166.08,101.56,166.08Z" transform="translate(-75.327 -105.085)"/><path class="d" d="M86.861,165.8s1.579,1.958,5.4,1.958,5.4-1.958,5.4-1.958S92.057,163.762,86.861,165.8Z" transform="translate(-66.026 -104.335)"/><path class="d" d="M65.84,181.7,64.724,169.28a7.823,7.823,0,0,0-5.221,1.743L57.136,181.7Z" transform="translate(-47.218 -107.098)"/><path class="d" d="M92.7,172.694v11.174H88.977l.729-5.141-2.146-2.267Z" transform="translate(-66.469 -109.27)"/><path class="d" d="M122.282,181.7,123.4,169.28a7.823,7.823,0,0,1,5.221,1.743l2.367,10.672Z" transform="translate(-88.439 -107.098)"/><path class="d" d="M101.56,172.694v11.174h3.724l-.729-5.141,2.146-2.267Z" transform="translate(-75.327 -109.27)"/><path class="d" d="M106.957,163.679l-5.4,3.293,5.69,5.668,4.227-6.578S108.711,163.34,106.957,163.679Z" transform="translate(-75.326 -103.547)"/><path class="d" d="M79.075,163.679l5.4,3.293-5.69,5.668-4.227-6.578S77.321,163.34,79.075,163.679Z" transform="translate(-58.241 -103.547)"/><path class="d" d="M83.884,10.525c-.508-1-1.943-1.133-2.7-1.565s-.756-2.267-2.159-3.023-1.62.432-2.6.216-1.933-2.159-3.229-2.591-2.482.432-3.454.216-1.619-2.267-3.324-2.159-1.75,1.3-2.1,1.187S62.832,0,60.727,0s-3.239,2.7-3.59,2.807-.4-1.079-2.1-1.187-2.353,1.943-3.324,2.159-2.157-.648-3.454-.216S46.013,5.938,45.03,6.154s-1.2-.972-2.6-.216-1.4,2.591-2.159,3.023-2.191.564-2.7,1.565c-1.835,3.617,1.448,29.123,2.865,29.123s.59-12.984,2.749-17.95,10.472-.648,17.543-.648,15.384-4.318,17.543.648,1.333,17.95,2.749,17.95S85.719,14.142,83.884,10.525Z" transform="translate(-34.495)"/></g></g></g></svg>