<svg xmlns="http://www.w3.org/2000/svg" width="37.69" height="37.382" viewBox="0 0 37.69 37.382"><defs><style>.a,.b{fill:#2ecc71;}.a{opacity:0;}.b{stroke:#fff;stroke-width:1.4px;}.c,.d{stroke:none;}.d{fill:#707070;}</style></defs><g transform="translate(-415.3 -3482.3)"><g class="a" transform="translate(416 3483)"><path class="c" d="M 35.29999923706055 35.29999923706055 L 0.699999988079071 35.29999923706055 L 0.699999988079071 0.699999988079071 L 35.29999923706055 0.699999988079071 L 35.29999923706055 35.29999923706055 Z"/><path class="d" d="M 1.400001525878906 1.400001525878906 L 1.400001525878906 34.59999847412109 L 34.59999847412109 34.59999847412109 L 34.59999847412109 1.400001525878906 L 1.400001525878906 1.400001525878906 M 0 0 L 36 0 L 36 36 L 0 36 L 0 0 Z"/></g><path class="b" d="M28.39,10.4A10.4,10.4,0,1,0,12.1,18.971,18.018,18.018,0,0,0,0,35.98H2.81A15.2,15.2,0,0,1,17.99,20.8a10.412,10.412,0,0,0,10.4-10.4Zm-10.4,7.59a7.59,7.59,0,1,1,7.589-7.59,7.6,7.6,0,0,1-7.589,7.59ZM36,25.861l-6.616,6.616L27.4,30.489,30.689,27.2H28.251A6.121,6.121,0,0,0,22.138,33.3l0,2.677-2.811,0,0-2.677a8.936,8.936,0,0,1,8.924-8.917h2.3L27.4,21.232l1.988-1.987Zm0,0" transform="translate(416 3483)"/></g></svg>