<svg xmlns="http://www.w3.org/2000/svg" width="36" height="36" viewBox="0 0 36 36"><defs><style>.a{fill:#fff;stroke:#707070;opacity:0;}.b{fill:#2ecc71;}.c{stroke:none;}.d{fill:none;}</style></defs><g transform="translate(-416 -1306)"><g class="a" transform="translate(416 1306)"><rect class="c" width="36" height="36"/><rect class="d" x="0.5" y="0.5" width="35" height="35"/></g><g transform="translate(416 1306)"><path class="b" d="M69.3.014A13.766,13.766,0,0,0,56,13.552v.524a20.153,20.153,0,0,0,5.162,12.787l.2,1.695A2.393,2.393,0,0,0,62.6,33.005v.6a2.4,2.4,0,0,0,2.4,2.4h9.6a2.4,2.4,0,0,0,2.4-2.4v-.6a2.393,2.393,0,0,0,1.234-4.448l.2-1.695A20.152,20.152,0,0,0,83.6,14.076V13.25a12.9,12.9,0,0,0-4.008-9.332A14.185,14.185,0,0,0,69.3.014ZM57.2,14.076v-.524a12.551,12.551,0,0,1,12-12.327v2.98h-.6a2.4,2.4,0,1,0,0,4.8h.6v6.6H65.6a.6.6,0,0,0-.6.6v.9a1.5,1.5,0,0,1-3,0v-.9a.6.6,0,0,0-.6-.6H57.291a13.568,13.568,0,0,1-.091-1.529Zm.28,2.729H60.8v.3a2.7,2.7,0,1,0,5.4,0v-.3h3v3a.6.6,0,0,0,.6.6H71a1.2,1.2,0,0,1,0,2.4H69.8a.6.6,0,0,0-.6.6v4.8H62.6c-.023,0-.045.006-.067.007l-.2-1.689a.6.6,0,0,0-.161-.341,19.593,19.593,0,0,1-4.688-9.377Zm18.32,16.8a1.2,1.2,0,0,1-1.2,1.2H65a1.2,1.2,0,0,1-1.2-1.2v-.6h12Zm1.2-1.8H62.6a1.2,1.2,0,1,1,0-2.4H77a1.2,1.2,0,0,1,0,2.4Zm.432-5.623a.6.6,0,0,0-.161.341l-.2,1.689c-.023,0-.044-.007-.067-.007H70.4v-4.2H71a2.4,2.4,0,1,0,0-4.8h-.6v-2.4h4.2a.6.6,0,0,0,.6-.6v-.6a1.2,1.2,0,0,1,2.4,0v.6a.6.6,0,0,0,.6.6h3.92a19.593,19.593,0,0,1-4.688,9.377ZM82.4,14.076a13.567,13.567,0,0,1-.091,1.529H78.8a2.4,2.4,0,0,0-4.8,0H70.4v-7.2a.6.6,0,0,0-.6-.6H68.6a1.2,1.2,0,0,1,0-2.4h1.2a.6.6,0,0,0,.6-.6V1.229A12.733,12.733,0,0,1,78.759,4.78,11.708,11.708,0,0,1,82.4,13.249Zm0,0" transform="translate(-51.8 -0.005)"/><path class="b" d="M267.715,72h0a2.1,2.1,0,0,0-1.457.587,2.15,2.15,0,0,0-2.981.069,2.264,2.264,0,0,0,0,3.106l2.548,2.654a.6.6,0,0,0,.866,0l2.547-2.654a2.263,2.263,0,0,0,0-3.106A2.1,2.1,0,0,0,267.715,72Zm.658,2.93-2.114,2.2-2.114-2.2a1.052,1.052,0,0,1,0-1.444.9.9,0,0,1,1.317,0l.364.379a.617.617,0,0,0,.866,0l.363-.379a.9.9,0,0,1,1.32,0,1.052,1.052,0,0,1,0,1.443Zm0,0" transform="translate(-242.962 -66.6)"/><path class="b" d="M130.152,284.2l1.624,1.624a.6.6,0,0,0,1.024-.424v-1.222a2.1,2.1,0,0,0-.3-4.178h-2.4a2.1,2.1,0,0,0,0,4.2Zm-.952-2.1a.9.9,0,0,1,.9-.9h2.4a.9.9,0,1,1,0,1.8h-.3a.6.6,0,0,0-.6.6v.352l-.776-.776A.6.6,0,0,0,130.4,283h-.3A.9.9,0,0,1,129.2,282.1Zm0,0" transform="translate(-118.401 -259)"/><path class="b" d="M107.6,101.938l1.489,1.138a.6.6,0,0,0,.938-.653l-.584-1.893,1.522-1.162a.6.6,0,0,0-.364-1.076h-1.849l-.578-1.869a.6.6,0,0,0-1.146,0l-.578,1.869H104.6a.6.6,0,0,0-.364,1.077l1.522,1.162-.584,1.893a.6.6,0,0,0,.938.653Zm-.709-2.446a.6.6,0,0,0,.573-.423l.136-.437.136.437a.6.6,0,0,0,.573.423h.518l-.444.34a.6.6,0,0,0-.209.653l.154.5-.362-.277a.6.6,0,0,0-.728,0l-.362.277.154-.5a.6.6,0,0,0-.209-.653l-.444-.34Zm0,0" transform="translate(-96.203 -88.8)"/><path class="b" d="M307,240h-1.2v1.8H304V243h1.8v1.8H307V243h1.8v-1.2H307Zm0,0" transform="translate(-281.2 -222)"/></g></g></svg>